<?xml version="1.0" encoding="UTF-8" standalone="no"?>
<!DOCTYPE svg PUBLIC "-//W3C//DTD SVG 1.1//EN" "http://www.w3.org/Graphics/SVG/1.1/DTD/svg11.dtd">
<svg width="100%" height="100%" viewBox="0 0 91 58" version="1.1" xmlns="http://www.w3.org/2000/svg" xmlns:xlink="http://www.w3.org/1999/xlink" xml:space="preserve" xmlns:serif="http://www.serif.com/" style="fill-rule:evenodd;clip-rule:evenodd;stroke-linejoin:round;stroke-miterlimit:2;">
    <g transform="matrix(1,0,0,1,-1207.64,-517.912)">
        <g transform="matrix(4.16667,0,0,4.16667,0,0)">
            <path d="M300.502,125.82L300.52,125.837L300.502,125.82Z" style="fill:rgb(235,127,127);fill-rule:nonzero;"/>
            <path d="M304.307,126.054L304.18,126.063L304.307,126.054Z" style="fill:rgb(235,127,127);fill-rule:nonzero;"/>
            <path d="M307.168,135.216L307.135,135.231L307.168,135.216Z" style="fill:rgb(235,127,127);fill-rule:nonzero;"/>
            <path d="M291.767,134.645L291.77,134.637L291.767,134.645Z" style="fill:rgb(235,127,127);fill-rule:nonzero;"/>
            <path d="M294.096,131.043L294.337,131.037C294.236,131.05 294.086,130.962 294.009,130.927L294.096,131.043Z" style="fill:rgb(235,127,127);fill-rule:nonzero;"/>
            <path d="M296.297,127.546C296.296,127.62 296.296,127.703 296.297,127.795C296.282,127.738 296.281,127.647 296.297,127.546ZM300.896,126.629L300.934,126.641L300.896,126.629ZM311.517,129.463C311.477,129.293 311.357,128.739 311.17,128.72C311.252,128.857 311.315,128.999 311.39,129.14C311.265,128.85 311.048,128.598 310.843,128.363L311.034,128.532C310.955,128.432 310.87,128.338 310.777,128.251C310.959,128.223 311.262,128.797 311.338,128.912C311.175,128.435 310.655,128.077 310.295,127.838L310.466,127.911C310.231,127.78 310.031,127.597 309.79,127.478C309.881,127.522 309.965,127.576 310.042,127.639C310.073,127.701 309.818,127.525 310.071,127.706C309.725,127.526 309.436,127.271 309.08,127.106L309.311,127.236L308.697,126.946L308.795,127.014C308.52,126.781 308.01,126.775 307.669,126.646L307.89,126.676L307.629,126.602L307.692,126.587C307.27,126.5 306.893,126.391 306.486,126.328C306.631,126.321 306.775,126.415 306.913,126.373C306.719,126.317 306.521,126.276 306.321,126.25C306.771,126.341 305.723,126.214 305.986,126.217C305.874,126.207 305.762,126.2 305.65,126.194C305.729,126.148 305.814,126.139 305.908,126.165C305.359,126.121 304.688,126.206 304.173,126.087C303.957,126.037 303.155,125.527 303.125,125.234L303.165,125.325C302.811,125.165 302.402,124.741 302.066,124.513C302.362,124.651 302.38,124.695 302.124,124.512L302.497,124.704C302.288,124.341 301.483,124.231 301.104,124.338L301.23,124.303C300.853,124.319 300.265,125.053 300.455,125.379C300.531,125.536 300.509,125.931 300.69,126.179L300.647,126.114L300.8,126.397C300.719,126.308 300.657,126.207 300.616,126.091L300.866,126.626L300.616,126.639C300.708,126.628 300.773,126.602 300.863,126.631C300.769,126.6 299.487,127.168 299.462,127.077L299.575,127.078C299.396,127.316 298.782,126.699 298.721,126.621L298.78,126.641C298.369,126.489 297.715,126.355 297.389,126.228C296.969,126.304 296.696,126.546 296.438,126.869C296.523,126.761 296.389,127.287 296.391,127.281C296.407,127.116 296.343,127.516 296.349,127.525L296.36,127.064C296.32,127.273 296.191,127.554 296.242,127.887C296.345,128.546 296.882,128.609 296.343,129.078C296.462,128.933 296.351,129.045 296.318,128.982C296.643,128.83 296.536,128.753 296.431,128.501C296.494,128.624 296.497,128.656 296.441,128.597C296.646,128.962 295.988,129.242 295.736,129.528L295.952,129.276C295.823,129.364 295.75,129.486 295.648,129.599C295.571,129.686 295.436,129.958 295.547,129.7C295.463,129.811 295.28,129.928 295.219,130.036L295.265,129.982C295.032,130.235 294.823,130.797 294.519,130.953C294.12,131.156 293.823,130.789 293.481,130.631C292.677,130.257 291.35,129.966 290.513,130.352C289.546,130.798 289.847,131.798 290.011,132.639C290.204,133.629 290.344,134.646 290.593,135.623C291.136,137.751 293.287,136.242 294.327,135.283C294.63,135.004 294.728,134.696 295.117,134.782C295.341,134.831 295.585,135.147 295.772,135.269C295.949,135.385 296.359,135.627 296.455,135.637C296.801,135.67 298.231,136.069 298.431,136.229C298.888,136.596 298.721,137.228 299.384,137.489C299.886,137.686 300.457,137.477 300.734,137.016C301.014,136.552 300.668,136.627 301.273,136.514C301.553,136.461 302.132,136.437 302.414,136.472C303.004,136.545 302.701,136.48 302.888,136.984C302.988,137.257 303.15,137.437 303.362,137.622C303.569,137.802 304.354,138.331 304.615,137.997L304.555,138.029C304.693,137.983 304.998,137.901 305.043,137.889C305.636,137.633 306.055,137.084 306.304,136.504L306.253,136.55L306.363,136.26C306.326,136.362 306.285,136.463 306.239,136.561C306.316,136.42 306.363,136.152 306.445,135.976C306.586,135.675 306.689,135.607 306.883,135.36L306.854,135.35C306.926,135.261 307.541,134.994 307.168,135.216C307.393,135.117 307.577,134.956 307.793,134.846L307.566,134.973C308.575,134.339 309.411,133.653 310.122,132.905C310.229,132.769 310.514,132.516 310.501,132.535C310.755,132.204 310.928,131.851 311.118,131.485C311.013,131.725 311.25,131.303 311.131,131.587C311.274,131.357 311.688,130.557 311.534,130.359L311.403,130.806C311.403,130.657 311.448,130.505 311.465,130.358C311.478,130.254 311.517,130.154 311.525,130.051C311.534,129.954 311.484,129.263 311.538,129.607L311.517,129.463Z" style="fill:rgb(235,127,127);fill-rule:nonzero;"/>
            <path d="M292.406,133.392L292.334,133.446L292.406,133.392Z" style="fill:rgb(235,127,127);fill-rule:nonzero;"/>
            <path d="M295.403,135.05C295.204,134.911 295.52,135.132 295.537,135.144L295.403,135.05Z" style="fill:rgb(235,127,127);fill-rule:nonzero;"/>
            <path d="M293.49,136.396L293.504,136.41C293.589,136.374 293.584,136.37 293.49,136.396Z" style="fill:rgb(235,127,127);fill-rule:nonzero;"/>
            <path d="M292.725,136.496L292.545,136.476C292.651,136.518 292.759,136.484 292.856,136.512L292.725,136.496Z" style="fill:rgb(235,127,127);fill-rule:nonzero;"/>
            <path d="M291.337,130.661L291.573,130.545L291.167,130.724L291.337,130.661Z" style="fill:rgb(235,127,127);fill-rule:nonzero;"/>
            <path d="M300.522,126.711L300.349,126.758L300.522,126.711Z" style="fill:rgb(235,127,127);fill-rule:nonzero;"/>
            <path d="M302.926,125.033C303.082,125.112 303.019,125.057 302.735,124.868L302.926,125.033Z" style="fill:rgb(235,127,127);fill-rule:nonzero;"/>
            <path d="M307.362,128.054C307.578,128.958 306.177,129.291 305.952,128.39C305.729,127.494 307.145,127.141 307.362,128.054Z" style="fill:rgb(58,64,66);fill-rule:nonzero;"/>
        </g>
    </g>
</svg>
