<?xml version="1.0" encoding="UTF-8" standalone="no"?>
<!DOCTYPE svg PUBLIC "-//W3C//DTD SVG 1.1//EN" "http://www.w3.org/Graphics/SVG/1.1/DTD/svg11.dtd">
<svg width="100%" height="100%" viewBox="0 0 972 473" version="1.1" xmlns="http://www.w3.org/2000/svg" xmlns:xlink="http://www.w3.org/1999/xlink" xml:space="preserve" xmlns:serif="http://www.serif.com/" style="fill-rule:evenodd;clip-rule:evenodd;stroke-linejoin:round;stroke-miterlimit:2;">
    <g transform="matrix(1,0,0,1,0.00212178,0.000504961)">
        <g transform="matrix(4.16667,0,0,4.16667,-1372.26,-587.654)">
            <g transform="matrix(0.625179,-0.780482,0.780482,0.625179,16.1856,426.865)">
                <path d="M415.208,134.811C416.006,135.672 416.337,136.112 416.747,136.462C434.117,151.276 449.458,168.067 464.356,185.295C481.792,205.456 498.173,226.461 514.347,247.632C518.224,252.707 521.726,258.045 525.051,263.495C525.986,265.027 526.758,266.664 527.531,268.288C528.391,270.098 528.502,272.048 528.254,273.996C527.869,277.025 526.196,279.146 523.312,280.109C520.586,281.02 518.104,280.351 516.007,278.386C515.505,277.915 515.097,277.343 514.662,276.804C499.324,257.803 484.01,238.782 468.645,219.803C456.331,204.592 443.519,189.805 430.198,175.469C419.224,163.659 407.252,152.902 394.856,142.611C394.216,142.08 393.561,141.566 392.885,141.081C392.677,140.932 392.38,140.905 392.095,140.813C391.338,141.325 391.764,142.016 391.914,142.596C394.07,150.916 396.263,159.228 398.425,167.547C399.506,171.706 400.555,175.874 401.592,180.045C402.797,184.89 404.125,189.696 405.606,194.467C406.797,198.303 407.905,202.187 408.697,206.12C409.958,212.38 404.907,217.764 398.554,217.165C395.599,216.886 393.286,215.442 391.73,212.951C391.006,211.791 390.454,210.476 390.072,209.158C388.184,202.635 386.29,196.11 384.563,189.543C381.001,176.001 377.537,162.435 374.048,148.873C372.769,143.899 371.245,139.009 369.399,134.213C368.454,131.757 367.591,129.261 366.856,126.734C366.355,125.015 365.983,123.224 365.846,121.441C365.727,119.901 365.512,118.444 364.926,117.009C362.707,111.571 366.786,104.602 373.683,104.49C378.146,104.418 382.523,104.811 386.857,105.997C405.191,111.015 423.269,116.833 441.112,123.37C451.006,126.994 460.815,130.851 470.652,134.629C472.072,135.175 473.511,135.744 474.806,136.526C478.86,138.974 480.452,143.803 478.741,148.111C477.063,152.334 472.454,154.717 467.842,153.643C466.502,153.331 465.219,152.755 463.93,152.247C449.353,146.497 434.725,140.883 419.859,135.912C418.576,135.483 417.348,134.782 415.208,134.811Z" style="fill:rgb(157,204,0);fill-rule:nonzero;"/>
            </g>
        </g>
    </g>
</svg>
